<?xml version="1.0" encoding="UTF-8"?>
<svg xmlns="http://www.w3.org/2000/svg" viewBox="0 0 24 24" fill="none">
  <path d="M19.14 12.94a7.98 7.98 0 0 0 0-1.88l2.03-1.58a.5.5 0 0 0 .12-.65l-1.92-3.32a.5.5 0 0 0-.6-.22l-2.39.96a8.12 8.12 0 0 0-1.62-.94l-.36-2.53A.5.5 0 0 0 14.5 2h-5a.5.5 0 0 0-.49.42l-.36 2.53c-.57.24-1.1.55-1.62.94L3.62 4.93a.5.5 0 0 0-.6.22L1.1 8.47c-.14.24-.07.54.12.65L3.25 10.7a7.98 7.98 0 0 0 0 1.88L1.1 14.16a.5.5 0 0 0-.12.65l1.92 3.32c.16.28.49.39.8.29l2.39-.96c.5.38 1.05.68 1.62.94l.36 2.53c.05.3.31.52.61.52h5c.3 0 .56-.22.61-.52l.36-2.53c.57-.24 1.1-.55 1.62-.94l2.39.96c.31.13.64-.01.8-.29l1.92-3.32a.5.5 0 0 0-.12-.65l-2.03-1.58zM12 15.5A3.5 3.5 0 1 1 12 8.5a3.5 3.5 0 0 1 0 7z" fill="currentColor"/>
</svg>
